<?xml version="1.0" encoding="UTF-8"?>
<svg id="Laag_1" xmlns="http://www.w3.org/2000/svg" width="546" height="312" version="1.1" viewBox="0 0 546 312">
  <!-- Generator: Adobe Illustrator 29.6.0, SVG Export Plug-In . SVG Version: 2.1.1 Build 207)  -->
  <path d="M123.5,191.3h.8c3.5,0,5.4-1.9,5.4-4.7s-1.2-3.1-3.7-3.1h-1l-1.4,7.8h0ZM126.2,182.5c2.1,0,3.1.2,3.9.6,1.2.6,1.9,1.9,1.9,3.3,0,3.5-3.1,6.2-7.2,6.2h-1.4l-1,4.5.2.4,1.4.2v.8h-5.6v-.8l1.4-.2.4-.4,2.5-13.4-.2-.2-1.4-.2v-.8h5.2Z"/>
  <path d="M139.2,188h-.4c-2.7,0-4.9,2.9-4.9,6.6s.6,2.9,2.1,2.9,1.6-.4,2.9-1.6l1.2-6.4-.8-1.4h0ZM142.7,187c-.2.6-.6,1.6-.8,3.5l-.8,4.3c-.2.8-.2,1.2-.2,1.6,0,.6.4,1,1.2,1s.6,0,1.4-.2v.6c-1.6.6-2.3.8-3.1.8s-1.4-.6-1.4-2.1c-1.4,1.4-2.5,2.1-3.7,2.1-2.1,0-3.3-1.6-3.3-4.1,0-4.1,2.9-7.6,6.6-7.6s1.4.2,2.3.6l.4-.6h1.4Z"/>
  <path d="M148.9,187l-.8,3.3c1.6-2.3,3.1-3.3,4.3-3.3s1.2.6,1.2,1.2-.6,1.4-1.6,1.4h-.2l-.4-1.2c-2.3.8-3.1,2.1-3.5,4.3l-1,5.6h-2.1l2.1-9.9-2.1-.4v-.6l3.5-.8h.6v.4Z"/>
  <path d="M159,184.7l-.4,2.7h3.5v1h-3.7l-1.2,6.4c0,.4-.2.8-.2,1,0,.8.4,1.4,1.4,1.4s1.2-.2,2.3-.4v.8c-1.9.8-2.9,1-3.7,1-1.2,0-1.9-.8-1.9-2.1s0-.8.2-1.6l1.2-6.6-1.4.2v-.6l1.9-.8,1.2-2.5h.8Z"/>
  <path d="M169.3,194.2c0,2.3.8,3.7,2.3,3.7,2.1,0,3.9-2.7,3.9-6.2s-.8-3.7-2.5-3.7-3.7,2.7-3.7,6.2h0ZM177.5,191.5c0,3.9-2.9,7.2-6.2,7.2s-4.1-1.9-4.1-4.5c0-4.1,2.7-7.2,6.2-7.2s4.1,1.9,4.1,4.5h0Z"/>
  <path d="M185.1,182.1c-.8.6-1.6,2.5-2.1,5.6h3.3v1h-3.5l-1,6.8c-.4,2.7-.8,4.1-1.6,5.4-1.2,1.6-2.7,2.9-3.9,2.9s-1.2-.6-1.2-1.2.2-.6.6-1l2.5.6c1-1,1.4-2.5,2.1-6.6l1-6.8-1.6.2v-.8l1.9-.8c.6-3.9,2.7-6.4,4.9-6.4s2.1.6,2.1,1.4-.4,1-1.2,1.2l-2.1-1.4h0Z"/>
  <path d="M195.6,184.7l-.4,2.7h3.5v1h-3.7l-1.2,6.4c0,.4-.2.8-.2,1,0,.8.4,1.4,1.4,1.4s1.2-.2,2.3-.4v.8c-1.9.8-2.9,1-3.7,1-1.2,0-1.9-.8-1.9-2.1s0-.8.2-1.6l1.2-6.6-1.4.2v-.6l1.9-.8,1.2-2.5h.8Z"/>
  <path d="M204.3,180.8c-.4,1.6-.6,2.9-1,4.3l-.8,4.1c2.1-1.6,3.3-2.3,4.7-2.3s1.9.8,1.9,1.9,0,1-.4,2.1l-.8,3.7c-.2.8-.2,1.2-.2,1.6,0,.8.4,1.2,1.2,1.2s.8,0,1.4-.2v.6c-1.4.6-2.3.8-2.9.8-1,0-1.6-.4-1.6-1.4s0-.8.2-1.2l1-4.5c.2-.8.2-1.2.2-1.6,0-1-.4-1.4-1.2-1.4s-2.3.6-3.7,2.1l-1.4,8h-2.1l3.3-16.1-2.3-.2v-.6l3.7-.6h.8v-.2Z"/>
  <path d="M217.3,191.5c1-.6,1.4-1.4,1.4-2.3s-.6-1.2-1.2-1.2c-1.4,0-2.7,1.6-3.5,4.5,1.4-.2,2.5-.6,3.3-1h0ZM220.2,196.7c-1.6,1.4-3.1,2.1-4.7,2.1s-3.7-1.6-3.7-4.3,1-4.7,2.9-6.2c1-.8,2.3-1.2,3.1-1.2,1.4,0,2.5,1,2.5,2.5,0,2.3-2.3,3.5-6.6,3.9v1c0,2.1,1,3.1,2.5,3.1s2.3-.6,3.9-2.1v1.2h.2Z"/>
  <path d="M230.9,191.3h.8c3.5,0,5.4-1.9,5.4-4.7s-1.2-3.1-3.7-3.1h-1l-1.4,7.8h0ZM233.5,182.5c2.1,0,3.1.2,3.9.6,1.2.6,1.9,1.9,1.9,3.3,0,3.5-3.1,6.2-7.2,6.2h-1.4l-1,4.5.2.4,1.4.2v.8h-5.8v-.8l1.4-.2.6-.4,2.5-13.4-.2-.4-1.4-.2v-.8h5.2v.2Z"/>
  <path d="M243.8,187l.6,9.5c2.7-4.9,3.3-6.2,4.3-8.9l1.4-.2c.2,3.1.4,5.4.6,9.5.6-.8.8-1,1.2-1.6,1.4-2.1,2.3-3.5,2.7-4.9l-.4-2.9c.4-.4.6-.6,1.2-.6s1.2.4,1.2,1.2c0,1.6-1.2,3.9-6.2,10.3h-1.4l-.6-8.4c-1,2.1-2.1,3.9-4.5,8.4h-1.6l.2-.6-.6-9.3-1.9-.2v-.6l2.7-.8,1,.2h0Z"/>
  <path d="M270.8,186.6h-1v-2.3l-.2-.4c-.8-.4-1.6-.6-2.5-.6-4.1,0-7.2,3.9-7.2,9.1s1.6,5.4,4.9,5.4,1.2,0,2.1-.4l.4-.4,1-2.7h1l-.6,3.7c-1.9.6-3.3.8-4.7.8-3.9,0-6.6-2.5-6.6-6.6s4.3-10.1,9.7-10.1,2.5.2,4.3.8l-.6,3.7h0Z"/>
  <path d="M280.9,187l-.4,2.3c2.3-1.9,3.5-2.3,4.7-2.3s1.9.8,1.9,1.9,0,1-.4,2.3l-.8,3.7c-.2.8-.2,1.2-.2,1.6,0,.8.4,1.2,1.2,1.2s.8,0,1.4-.2v.6c-1.4.6-2.3.8-2.9.8-1,0-1.6-.4-1.6-1.4s0-.6.2-1.2l1-4.5c.2-.6.2-1.2.2-1.6,0-1-.4-1.4-1.2-1.4s-2.1.6-3.7,2.1l-1.4,8h-2.1l2.1-9.9-2.1-.4v-.6l3.5-.8h.6Z"/>
  <path d="M295.1,191.5c1-.6,1.4-1.4,1.4-2.3s-.6-1.2-1.2-1.2c-1.4,0-2.7,1.6-3.5,4.5,1.4-.2,2.5-.6,3.3-1h0ZM298,196.7c-1.6,1.4-3.1,2.1-4.7,2.1s-3.7-1.6-3.7-4.3,1-4.7,2.9-6.2c1-.8,2.3-1.2,3.1-1.2,1.4,0,2.5,1,2.5,2.5,0,2.3-2.3,3.5-6.6,3.9v1c0,2.1,1,3.1,2.5,3.1s2.3-.6,3.9-2.1v1.2h.2Z"/>
  <path d="M304.2,184.7l-.4,2.7h3.5v1h-3.7l-1.2,6.4c0,.4-.2.8-.2,1,0,.8.4,1.4,1.4,1.4s1.2-.2,2.3-.4v.8c-1.9.8-2.9,1-3.7,1-1.2,0-1.9-.8-1.9-2.1s0-.8.2-1.6l1.2-6.6-1.4.2v-.6l1.6-.8,1.2-2.5h1Z"/>
  <path d="M311.6,187l.6,9.5c2.7-4.9,3.3-6.2,4.3-8.9l1.4-.2c.2,3.1.4,5.4.6,9.5.6-.8.8-1,1.2-1.6,1.4-2.1,2.3-3.5,2.7-4.9l-.4-2.9c.4-.4.6-.6,1.2-.6s1.2.4,1.2,1.2c0,1.6-1.2,3.9-6.2,10.3h-1.4l-.6-8.4c-1,2.1-2.1,3.9-4.5,8.4h-1.6l.2-.6-.6-9.5h-1.9s0-.6,0-.6l2.7-.8,1,.2h0Z"/>
  <path d="M326.9,194.2c0,2.3.8,3.7,2.3,3.7,2.1,0,3.9-2.7,3.9-6.2s-.8-3.7-2.5-3.7-3.7,2.7-3.7,6.2h0ZM334.9,191.5c0,3.9-2.9,7.2-6.2,7.2s-4.1-1.9-4.1-4.5c0-4.1,2.7-7.2,6.2-7.2s4.1,1.9,4.1,4.5h0Z"/>
  <path d="M340.5,187l-.8,3.3c1.6-2.3,3.1-3.3,4.3-3.3s1.2.6,1.2,1.2-.6,1.4-1.6,1.4h-.2l-.6-1.2c-2.3.8-3.1,2.1-3.5,4.3l-1,5.6h-2.1l2.1-9.9-2.1-.4v-.6l3.5-.8h.8v.4Z"/>
  <path d="M351,180.8l-2.5,11.9,4.5-4.5c.8-.8,1.4-1.2,2.1-1.2s1.4.6,1.4,1.2-.4,1-1.2,1.4l-.8-1c-1,.8-1.4,1.2-3.1,2.7,1.2,2.9,1.6,3.5,2.3,4.5.6,1,1.4,1.6,2.3,1.6s.8,0,1.2-.2v.6c-1.4.4-2.3.6-2.9.6s-1.6-.6-2.3-1.9l-2.1-4.1-1.4,1.2-.8,4.5h-2.1l3.3-16.1-2.3-.2v-.6l3.7-.6h.6Z"/>
  <path d="M420,149.1l6.2-5.2v-11.3l-11.5,9.5-7-9.1c4.5-2.9,8.7-6.2,8.7-12.6s-4.9-12.2-12.2-12.2-13,4.9-13,12.6,1.9,7.6,3.9,10.3c-4.9,2.9-9.3,6.8-9.3,13.8s5.8,14.2,15.7,14.2,9.1-2.3,11.5-4.3l2.9,3.7h11.7l-7.6-9.5h0ZM166.8,125.2v-9.7h-6.2l-4.3,8-6,3.7v3.1h4.9v20.6c0,5.6,3.1,8.4,9.3,8.4s6.6-.8,11.7-3.1v-3.9s-1.4.4-3.1.4c-4.7,0-6.2-1.2-6.2-6v-16.3h9.5v-5.4h-9.7ZM264.4,125.2v-9.7h-6.2l-4.3,8-6,3.7v3.1h4.9v20.6c0,5.6,3.1,8.4,9.3,8.4s6.6-.8,12.2-3.1v-3.9s-2.1.4-3.5.4c-4.7,0-6.2-1.2-6.2-6v-16.3h9.9v-5.4h-10.1ZM403.9,117.2c2.3,0,3.3,1.9,3.3,3.7,0,2.9-1.9,4.3-4.5,6-1.4-1.9-2.5-3.3-2.5-5.8,0-2.3,1.4-3.9,3.7-3.9h0ZM135.3,136.5c-3.7-1.4-4.9-2.5-4.9-4.5s2.1-3.9,5.2-3.9,3.1.4,5.2,1.2l1,1,.8,5.4h4.9v-10.5c-6.4-1.4-9.3-1.9-13.2-1.9-9.3,0-15.5,4.3-15.5,10.9s3.3,7.4,14.2,12.2c3.5,1.2,4.5,2.5,4.5,4.3s-2.1,4.1-5.6,4.1-3.9-.4-7-1.6l-.8-.8-.8-6.4h-4.9v11.5c7.2,1.4,10.1,2.1,14.8,2.1,9.3,0,16.1-4.9,16.1-11.5s-2.7-7.4-14-11.5h0ZM203.9,123.8c-3.7,2.3-6,4.1-9.3,7.6l.6-8h-4.1l-12.6,4.1v3.3h4.9v23.1l-.8,1-3.7.2v3.7h22.3v-3.7l-5.2-.2-.8-1v-20h1.6c3.3,0,5.2,1.2,6.6,4.7h4.9l2.1-13.4c-1.6-1.2-2.5-1.2-5.4-1.2-.4-.4-.6-.4-1.2-.2h0ZM245.9,154.7l-.6-.8v-15.7c0-7-.6-8.9-3.1-11.1-2.5-2.5-6.6-3.5-11.9-3.5-9.9,0-17.7,3.7-17.7,8.7s1.2,2.7,4.1,2.7h8.2v-7.4c6.2,0,8.7,2.1,8.7,6.8v2.1c-11.5,2.5-16.7,3.9-18.7,5.6-2.5,1.9-4.1,4.7-4.1,8,0,5.6,4.1,9.5,10.1,9.5s7-1.2,12.8-4.7l1,3.9h15.5v-3.7l-4.1-.2h0ZM293.5,123.3c-11.7,0-18.7,7.2-18.7,18.1s6.8,17.7,18.7,17.7,9.9-1.2,16.1-3.9v-6.4c-4.9,2.7-8.2,3.7-12.8,3.7-6.6,0-9.9-3.7-10.3-11.1h23.3v-1c0-10.7-5.8-17.1-16.3-17.1h0ZM388.5,128.7v-3.5h-14.8v3.5l3.7.6.6.8-7.2,17.3-7.4-17.3.6-.8,3.9-.6v-3.5h-29.5c-2.5-1-5.6-1.6-9.7-1.6-10.1,0-16.5,4.7-16.5,12.2s2.7,8.4,9.1,10.7c-3.3,2.3-4.5,4.1-4.5,6.4s.4,2.3,1.2,4.1c-4.7,0-7.4,2.7-7.4,7,0,6.2,6,9.9,16.5,9.9s21.2-5.4,21.2-12.8-5.2-8.4-19.8-9.9l-3.1-.2c-.2-.8-.2-1.4-.2-2.1s0-1.2.2-2.1c1.2.2,2.3.2,3.3.2,10.5,0,16.7-4.3,16.7-11.5s-.6-4.1-1.6-6h6.4l14.8,31.1c-1.2,3.1-2.9,5.2-4.5,6.2l-4.7-5.2c-2.5.8-4.7,3.9-4.7,6.8s2.5,5.8,5.8,5.8c5.6,0,9.9-5.6,13.8-14l13.8-30.7,4.1-.8h0ZM329.6,143.5c-2.9,0-4.7-3.1-4.7-8.2s1.9-7.6,4.9-7.6,4.9,2.7,4.9,7.2c-.2,5.4-2.3,8.7-5.2,8.7h0ZM297.8,137.1h-11.1c.2-6.6,1.9-9.3,5.8-9.3s5.2,2.5,5.4,9.3h0ZM407.4,148.1c-1.4,1.2-3.5,2.5-6.2,2.5s-5.8-2.1-5.8-5.6,1.4-4.9,4.3-6.8l7.6,9.9h0ZM233.5,141.1v10.3c-2.7,1-3.9,1.2-5.4,1.2-3.1,0-4.9-2.1-4.9-4.9s1.2-4.1,3.9-5.4c1.6-.4,2.3-.6,6.4-1.2h0ZM322.8,158.2l9.7,1.4c3.1.4,4.9,1.9,4.9,4.1,0,3.5-2.7,5.8-6.8,5.8s-8.4-3.3-8.4-7.6c0-1,.2-2.3.6-3.7h0Z"/>
  <metadata>
    <sfw xmlns="http://ns.adobe.com/SaveForWeb/1.0/">
      <slices/>
      <sliceSourceBounds x="118.38" y="108.3" width="309.25" height="95.39" bottomLeftOrigin="true"/>
    </sfw>
  </metadata>
</svg>